HIERARCHY
ROOT Hips
{
 OFFSET 0.000000 0.000000 0.000000
 CHANNELS 6 Xposition Yposition Zposition Yrotation Xrotation Zrotation
 JOINT Chest
 {
  OFFSET 0.000000 9.585900 0.002600
  CHANNELS 3 Yrotation Xrotation Zrotation
  JOINT Chest2
  {
   OFFSET 0.000000 9.601200 -0.005300
   CHANNELS 3 Yrotation Xrotation Zrotation
   JOINT Chest3
   {
    OFFSET 0.000000 9.561800 0.000000
    CHANNELS 3 Yrotation Xrotation Zrotation
    JOINT Chest4
    {
     OFFSET 0.000000 9.552100 0.000000
     CHANNELS 3 Yrotation Xrotation Zrotation
     JOINT Neck
     {
      OFFSET 0.000000 14.453000 0.000000
      CHANNELS 3 Yrotation Xrotation Zrotation
      JOINT Head
      {
       OFFSET 0.000000 8.936500 -0.011300
       CHANNELS 3 Yrotation Xrotation Zrotation
       End Site
       {
        OFFSET 0.000000 17.073600 -0.006000
       }
      }
     }
     JOINT RightCollar
     {
      OFFSET -2.921100 9.558500 0.000000
      CHANNELS 3 Yrotation Xrotation Zrotation
      JOINT RightShoulder
      {
       OFFSET -13.519700 0.000000 0.000000
       CHANNELS 3 Yrotation Xrotation Zrotation
       JOINT RightElbow
       {
        OFFSET 0.000000 -29.696600 0.000000
        CHANNELS 3 Yrotation Xrotation Zrotation
        JOINT RightWrist
        {
         OFFSET 0.000000 -24.004700 0.000000
         CHANNELS 3 Yrotation Xrotation Zrotation
         End Site
         {
          OFFSET 0.000000 -17.728500 0.000000
         }
        }
       }
      }
     }
     JOINT LeftCollar
     {
      OFFSET 2.921100 9.558500 0.000000
      CHANNELS 3 Yrotation Xrotation Zrotation
      JOINT LeftShoulder
      {
       OFFSET 13.519700 0.000000 0.000000
       CHANNELS 3 Yrotation Xrotation Zrotation
       JOINT LeftElbow
       {
        OFFSET 0.000000 -29.696600 0.000000
        CHANNELS 3 Yrotation Xrotation Zrotation
        JOINT LeftWrist
        {
         OFFSET 0.000000 -24.004700 0.000000
         CHANNELS 3 Yrotation Xrotation Zrotation
         End Site
         {
          OFFSET 0.000000 -17.728500 0.000000
         }
        }
       }
      }
     }
    }
   }
  }
 }
 JOINT RightHip
 {
  OFFSET -7.771700 -0.012900 -0.001300
  CHANNELS 3 Yrotation Xrotation Zrotation
  JOINT RightKnee
  {
   OFFSET 0.000000 -40.869800 0.001200
   CHANNELS 3 Yrotation Xrotation Zrotation
   JOINT RightAnkle
   {
    OFFSET 0.000000 -39.717900 0.002100
    CHANNELS 3 Yrotation Xrotation Zrotation
    JOINT RightToe
    {
     OFFSET 0.000000 -4.965400 11.033500
     CHANNELS 3 Yrotation Xrotation Zrotation
     End Site
     {
      OFFSET 0.000000 -1.423100 5.872300
     }
    }
   }
  }
 }
 JOINT LeftHip
 {
  OFFSET 7.771700 -0.012900 -0.001300
  CHANNELS 3 Yrotation Xrotation Zrotation
  JOINT LeftKnee
  {
   OFFSET 0.000000 -40.869800 0.001200
   CHANNELS 3 Yrotation Xrotation Zrotation
   JOINT LeftAnkle
   {
    OFFSET 0.000000 -39.717900 0.002100
    CHANNELS 3 Yrotation Xrotation Zrotation
    JOINT LeftToe
    {
     OFFSET 0.000000 -4.965400 11.033500
     CHANNELS 3 Yrotation Xrotation Zrotation
     End Site
     {
      OFFSET 0.000000 -1.423100 5.872300
     }
    }
   }
  }
 }
}
MOTION
Frames: 9
Frame Time: 0.008333
-7.469114 55.165312 25.919766 -179.732619 -30.284699 -9.508752 0.760656 13.263984 4.598744 0.448481 7.626089 2.190347 0.570677 9.560439 2.761552 0.443087 7.635044 2.193535 2.551758 19.153349 -0.700026 2.870622 -5.454590 -1.325675 0.564175 2.493003 -2.988455 -20.935912 -11.762313 5.069444 -146.000530 -83.865227 159.287920 10.743605 -5.923556 4.155517 -10.793592 1.882027 -2.749067 8.384862 -7.119669 -0.304508 -121.867130 -71.735171 130.666740 22.087674 -10.193425 -17.985821 -18.075517 -35.424674 7.110678 38.514225 86.884290 34.772144 0.459863 -18.181510 -0.230487 -0.002818 0.563495 -0.012900 -13.985575 -47.195700 14.193411 174.882277 80.336533 169.975053 -2.418517 -17.819837 2.199676 -0.049039 -0.558286 -0.017677
-7.468569 55.174594 25.921108 -179.743659 -30.289607 -9.517260 0.750058 13.282092 4.604500 0.406747 7.651800 2.191001 0.617523 9.539463 2.758188 0.410179 7.656302 2.201811 2.508087 19.173995 -0.618773 2.805222 -5.434443 -1.229174 0.594659 2.517153 -2.999220 -20.731382 -11.901429 5.145205 -142.528729 -84.130105 155.730773 10.579945 -6.123155 4.076035 -10.771240 1.894751 -2.773148 8.260241 -7.229553 -0.385258 -121.528007 -72.028349 130.397552 21.958566 -10.010897 -17.926275 -18.081292 -35.418495 7.120754 38.578384 86.880387 34.849496 0.463345 -18.190592 -0.245672 0.008217 0.571176 -0.012260 -13.976771 -47.195359 14.198704 174.837655 80.328913 169.939714 -2.421762 -17.824903 2.201602 -0.046221 -0.557048 -0.019767
-7.470632 55.182706 25.923337 -179.746199 -30.293854 -9.520050 0.727348 13.296529 4.598269 0.388230 7.654090 2.189225 0.641697 9.545289 2.760557 0.360175 7.668568 2.207450 2.471777 19.199955 -0.533651 2.746861 -5.407979 -1.130285 0.631321 2.542628 -3.010272 -20.482022 -12.075416 5.235588 -139.034501 -84.509688 152.087717 10.485569 -6.290709 4.009622 -10.743650 1.920822 -2.803295 8.141233 -7.337757 -0.453792 -121.194346 -72.355118 130.131591 21.800839 -9.799134 -17.874165 -18.105782 -35.416329 7.134124 38.688340 86.881054 34.947548 0.469777 -18.194440 -0.254585 -0.002348 0.568017 -0.008268 -13.962997 -47.198181 14.185760 174.763426 80.323196 169.874576 -2.425958 -17.827331 2.203507 -0.046828 -0.554522 -0.019883
-7.472098 55.190753 25.925714 -179.753072 -30.306594 -9.530647 0.659667 13.307861 4.576737 0.441377 7.663157 2.203100 0.520709 9.568677 2.756475 0.406428 7.660477 2.195644 2.445232 19.235447 -0.443995 2.698033 -5.370435 -1.028932 0.686419 2.572971 -3.023442 -20.199724 -12.283565 5.345340 -135.260854 -85.009074 148.105694 10.460957 -6.423692 4.003081 -10.761568 2.003291 -2.861987 8.089179 -7.487549 -0.493986 -120.912891 -72.733984 129.897498 21.620704 -9.571925 -17.835936 -18.116386 -35.404857 7.142925 38.749045 86.880341 35.012824 0.489126 -18.194781 -0.272231 -0.002672 0.568718 -0.005696 -13.955265 -47.191070 14.187479 174.691576 80.315388 169.809607 -2.429582 -17.830739 2.204716 -0.049095 -0.552421 -0.019264
-7.470645 55.200801 25.925667 -179.771406 -30.348372 -9.559918 0.633600 13.334920 4.587867 0.469401 7.678242 2.212796 0.442911 9.563701 2.746036 0.384382 7.665745 2.192681 2.432149 19.282650 -0.348802 2.662498 -5.319331 -0.924884 0.778364 2.605880 -3.039015 -19.903955 -12.521777 5.477600 -130.961838 -85.632831 143.539488 10.497261 -6.519314 4.093167 -10.737644 2.068264 -2.925346 8.019751 -7.598318 -0.509484 -120.744903 -73.183997 129.754889 21.418517 -9.326793 -17.815078 -18.121361 -35.354885 7.170294 38.673878 86.873177 34.946123 0.504857 -18.190306 -0.291859 -0.003606 0.567923 -0.003319 -13.959070 -47.147377 14.223165 174.673254 80.303454 169.793894 -2.430522 -17.839910 2.205013 -0.044173 -0.553668 -0.019258
-7.472505 55.208683 25.928284 -179.784285 -30.377380 -9.578054 0.586116 13.344139 4.575485 0.383117 7.675121 2.193485 0.471675 9.578981 2.742952 0.358918 7.670046 2.186521 2.433106 19.341346 -0.244638 2.640064 -5.254741 -0.814493 0.880681 2.644971 -3.060746 -19.582841 -12.792708 5.641518 -125.699748 -86.371627 137.957794 10.600282 -6.562548 4.286045 -10.680293 2.119403 -2.982415 7.926478 -7.677243 -0.503973 -120.743113 -73.708752 129.764867 21.192613 -9.043633 -17.815380 -18.126083 -35.325007 7.185990 38.670278 86.869627 34.949415 0.512889 -18.185848 -0.308826 -0.002297 0.569302 0.000165 -13.951497 -47.123660 14.231945 174.634897 80.294604 169.766107 -2.432625 -17.842593 2.205057 -0.044402 -0.554934 -0.019936
-7.446107 55.205584 25.959214 -179.668119 -30.212932 -9.837053 0.431030 13.177818 4.733140 0.332897 7.675204 2.177105 0.463317 9.591565 2.734659 0.332907 7.675192 2.177136 2.442938 19.408770 -0.130749 2.625000 -5.179833 -0.695807 0.979653 2.684216 -3.087147 -19.248178 -13.094085 5.842474 -118.386818 -87.206400 130.298561 10.785218 -6.532895 4.552479 -10.619940 2.161043 -3.024722 7.822936 -7.739847 -0.483897 -120.900267 -74.293179 129.931603 20.946899 -8.706844 -17.849461 -18.428600 -35.392420 7.489501 37.963655 86.843226 34.267990 0.534453 -18.147000 -0.343845 -0.001787 0.567149 -0.000219 -14.388985 -47.424601 14.628317 174.755156 80.148669 169.916777 -2.345742 -17.346465 2.188924 -0.102686 -0.989121 -0.046031
-7.447807 55.212472 25.963792 -179.692915 -30.246240 -9.858934 0.388762 13.189296 4.716115 0.308935 7.682697 2.165268 0.433131 9.601128 2.719353 0.308953 7.682729 2.165263 2.454093 19.481500 -0.010021 2.609839 -5.098747 -0.570180 1.083437 2.711087 -3.112172 -18.937415 -13.423824 6.080353 -105.457431 -88.101752 117.032761 11.059978 -6.414646 4.847928 -10.570900 2.188824 -3.048664 7.710940 -7.791735 -0.453031 -121.166451 -74.909951 130.213507 20.678972 -8.310330 -17.920330 -18.428911 -35.359237 7.510151 38.143098 86.826607 34.462038 0.530661 -18.134732 -0.366499 -0.007286 0.565800 0.001337 -14.388047 -47.396386 14.655431 174.721386 80.137527 169.886798 -2.338828 -17.348436 2.187201 -0.103568 -0.992391 -0.046298
-7.450380 55.219385 25.968101 -179.720602 -30.288568 -9.875428 0.352868 13.211262 4.692667 0.288416 7.693518 2.151949 0.407154 9.614813 2.702223 0.360214 7.687207 2.178695 2.382316 19.560427 0.097229 2.587781 -5.015584 -0.438328 1.100107 2.731654 -3.152224 -18.651608 -13.789901 6.357080 -72.399423 -88.877000 83.673334 11.413874 -6.209287 5.152260 -10.612742 2.203150 -3.076485 7.594953 -7.841001 -0.409539 -121.442023 -75.515774 130.512824 20.385427 -7.860578 -18.020422 -18.415734 -35.319476 7.529711 38.144371 86.818149 34.471045 0.526651 -18.123316 -0.381557 -0.006938 0.565406 0.005197 -14.379069 -47.356403 14.678549 174.747203 80.130880 169.909640 -2.329299 -17.357503 2.188881 -0.101604 -0.987898 -0.045250
